<svg xmlns="http://www.w3.org/2000/svg" width="426" height="169" viewBox="0 0 426 169" version="1.1"><path d="M 272.357 29.577 C 268.729 35.115, 274.885 41.271, 280.423 37.643 C 282.185 36.488, 283 35.061, 283 33.132 C 283 27.226, 275.532 24.732, 272.357 29.577 M 326 35 C 326 41.333, 325.810 42, 324 42 C 322.296 42, 322 42.667, 322 46.500 C 322 50.333, 322.296 51, 324 51 C 325.800 51, 326.002 51.674, 326.022 57.750 C 326.064 70.683, 331.406 77.113, 342.707 77.832 L 349 78.233 349 73.616 L 349 69 344.455 69 C 340.962 69, 339.341 68.432, 337.455 66.545 C 335.348 64.439, 335 63.162, 335 57.545 L 335 51 342 51 L 349 51 349 46.500 L 349 42 342 42 L 335 42 335 35 L 335 28 330.500 28 L 326 28 326 35 M 229 54 L 229 78.221 239.846 77.850 C 249.834 77.508, 251.077 77.241, 255.569 74.463 C 258.587 72.597, 261.601 69.580, 263.474 66.552 C 266.152 62.219, 266.500 60.777, 266.500 54 C 266.500 47.223, 266.152 45.781, 263.474 41.448 C 261.601 38.420, 258.587 35.403, 255.569 33.537 C 251.077 30.759, 249.834 30.492, 239.846 30.150 L 229 29.779 229 54 M 70.500 33.338 C 59.477 37.011, 50.664 44.052, 44.163 54.379 C 25.047 84.747, 35.151 127.279, 64.820 141.335 L 71.500 144.500 128 144.635 C 181.697 144.764, 184.796 144.673, 190.460 142.804 C 212.991 135.369, 228.236 106.881, 224.110 79.924 C 220.912 59.035, 210.262 43.274, 194.223 35.692 C 187.217 32.380, 187.390 32.399, 166.500 32.668 C 164.300 32.696, 158.900 32.707, 154.500 32.692 C 150.100 32.677, 144.700 32.677, 142.500 32.692 C 140.300 32.707, 134.787 32.713, 130.250 32.704 C 125.713 32.696, 119.975 32.690, 117.500 32.692 C 115.025 32.693, 109.737 32.668, 105.750 32.635 C 101.763 32.602, 97.150 32.689, 95.500 32.829 C 93.850 32.968, 88.450 32.840, 83.500 32.543 C 77.349 32.175, 73.234 32.426, 70.500 33.338 M 71.500 36.399 C 57.749 40.748, 47.822 50.658, 41.637 66.211 C 27.760 101.104, 50.333 143.328, 82.047 141.800 L 88.276 141.500 83.206 138.223 C 73.015 131.635, 64.337 118.939, 60.500 105 C 58.090 96.248, 58.097 80.704, 60.516 72 C 64.472 57.763, 73.870 44.091, 83.633 38.369 C 86.035 36.962, 88 35.628, 88 35.405 C 88 34.465, 75.172 35.238, 71.500 36.399 M 99 35.401 C 99 35.622, 100.466 36.667, 102.257 37.724 C 105.329 39.536, 105.670 39.551, 108.265 37.982 C 112.810 35.233, 112.607 35, 105.667 35 C 102 35, 99 35.181, 99 35.401 M 123 35.401 C 123 35.622, 124.514 36.696, 126.365 37.788 C 129.722 39.768, 129.738 39.768, 132.865 37.788 C 134.589 36.697, 136 35.623, 136 35.402 C 136 35.181, 133.075 35, 129.500 35 C 125.925 35, 123 35.181, 123 35.401 M 147 35.401 C 147 35.622, 148.514 36.696, 150.365 37.788 C 153.722 39.768, 153.738 39.768, 156.865 37.788 C 158.589 36.697, 160 35.623, 160 35.402 C 160 35.181, 157.075 35, 153.500 35 C 149.925 35, 147 35.181, 147 35.401 M 171 35.276 C 171 35.570, 172.919 36.934, 175.264 38.309 C 181.584 42.013, 189.360 50.772, 193.271 58.594 C 197.776 67.604, 198.782 70.876, 199.996 80.460 C 201.888 95.396, 198.300 111.536, 190.396 123.639 C 186.800 129.146, 178.410 137.220, 173.813 139.597 C 172.266 140.397, 171 141.321, 171 141.651 C 171 141.981, 174.713 142.047, 179.250 141.798 C 190.212 141.195, 197.340 137.852, 205.670 129.404 C 216.073 118.854, 221.389 105.020, 221.389 88.500 C 221.389 74.410, 217.820 63.085, 210.075 52.601 C 202.033 41.716, 191.662 35.939, 178.827 35.196 C 174.522 34.947, 171 34.983, 171 35.276 M 86.441 40.509 C 71.172 49.526, 61.792 68.018, 61.824 89.041 C 61.856 109.875, 72.545 129.668, 87.992 137.496 L 93.316 140.194 98.119 137.944 L 102.922 135.695 97.939 130.243 C 92.409 124.193, 85.898 111.524, 83.947 103.017 C 81.806 93.687, 82.448 78.739, 85.385 69.500 C 88.243 60.513, 93.429 51.248, 98.563 45.958 C 100.453 44.010, 102 42.106, 102 41.728 C 102 40.982, 94.616 37, 93.231 37 C 92.764 37, 89.709 38.579, 86.441 40.509 M 112.750 39.068 C 110.688 40.157, 109.020 41.375, 109.045 41.774 C 109.069 42.173, 110.986 44.614, 113.304 47.199 L 117.518 51.897 122.180 46.609 L 126.842 41.322 122.394 39.161 C 117.089 36.583, 117.450 36.587, 112.750 39.068 M 136.750 39.068 C 134.688 40.157, 133.020 41.375, 133.045 41.774 C 133.069 42.173, 134.986 44.614, 137.304 47.199 L 141.518 51.897 146.180 46.609 L 150.842 41.322 146.394 39.161 C 141.089 36.583, 141.450 36.587, 136.750 39.068 M 160.750 39.068 C 158.688 40.157, 157 41.308, 157 41.627 C 157 41.946, 159.048 44.484, 161.551 47.268 C 166.696 52.990, 173.177 65.806, 175.045 73.948 C 176.598 80.720, 176.608 96.992, 175.062 103 C 172.064 114.651, 166.360 125.487, 160.093 131.437 C 158.392 133.052, 157 134.746, 157 135.200 C 157 135.654, 158.963 136.980, 161.362 138.145 L 165.724 140.264 171.946 136.948 C 182.730 131.200, 191.829 118.682, 195.530 104.500 C 197.581 96.644, 197.575 80.325, 195.520 72.500 C 193.326 64.148, 188.318 54.715, 183 48.917 C 178.798 44.336, 167.940 36.945, 165.559 37.044 C 164.976 37.069, 162.813 37.979, 160.750 39.068 M 239 54 L 239 68 243.965 68 C 256.991 68, 262.479 51.896, 252.453 43.093 C 249.527 40.524, 248.089 40, 243.965 40 L 239 40 239 54 M 297.481 42.394 C 284.259 48.155, 283.420 68.810, 296.119 75.947 C 302.755 79.676, 312.629 78.383, 317.351 73.165 C 319.155 71.171, 319.135 71.044, 316.472 67.552 L 313.747 63.980 311.237 66.490 C 309.698 68.029, 307.593 69, 305.794 69 L 302.861 69 309.181 61.412 C 312.656 57.239, 316.496 52.577, 317.713 51.052 L 319.926 48.279 317.713 46.257 C 312.145 41.167, 303.906 39.594, 297.481 42.394 M 272.714 42.620 C 272.321 43.012, 272 51.133, 272 60.667 L 272 78 277.023 78 L 282.046 78 281.773 60.250 L 281.500 42.500 277.464 42.203 C 275.244 42.040, 273.106 42.227, 272.714 42.620 M 100.519 48.426 C 85.012 65.077, 81.228 94.661, 91.900 115.802 C 95.255 122.449, 102.369 131.821, 104.753 132.735 C 105.877 133.167, 107.808 131.722, 111.103 127.985 L 115.838 122.614 113.447 117.896 C 104.943 101.113, 104.764 76.144, 113.032 59.938 C 115.599 54.905, 115.552 54.485, 111.903 49.877 C 106.665 43.265, 105.467 43.112, 100.519 48.426 M 124.498 48.555 C 122.024 51.101, 120 53.763, 120 54.471 C 120 55.179, 121.104 58.175, 122.453 61.129 C 126.454 69.889, 128.053 77.707, 128.053 88.500 C 128.053 99.293, 126.454 107.111, 122.453 115.871 C 121.104 118.825, 120.003 121.750, 120.006 122.371 C 120.016 124.093, 127.972 133, 129.500 133 C 130.240 133, 132.860 130.696, 135.323 127.880 L 139.802 122.761 136.923 116.674 C 132.411 107.132, 130.675 97.535, 131.221 85.144 C 131.675 74.816, 132.742 70.494, 138.077 57.366 C 139.269 54.434, 139.140 53.964, 136.078 50.099 C 130.724 43.338, 129.701 43.202, 124.498 48.555 M 148.636 48.627 C 146.086 51.213, 144 53.876, 144 54.544 C 144 55.212, 145.104 58.175, 146.453 61.129 C 150.454 69.889, 152.053 77.707, 152.053 88.500 C 152.053 99.293, 150.454 107.111, 146.453 115.871 C 145.104 118.825, 144 121.685, 144 122.227 C 144 123.776, 149.968 130.912, 152.314 132.168 C 154.202 133.178, 154.958 132.714, 159.274 127.901 C 168.587 117.511, 173.096 104.658, 173.096 88.500 C 173.096 77.481, 171.482 69.900, 167.329 61.418 C 164.590 55.826, 156.357 44.928, 154.386 44.287 C 153.774 44.087, 151.186 46.040, 148.636 48.627 M 298.923 52.923 C 296.835 55.011, 296 56.821, 296 59.256 C 296 61.132, 296.286 62.953, 296.636 63.303 C 297.212 63.879, 307 51.830, 307 50.544 C 307 50.245, 305.840 50, 304.423 50 C 302.908 50, 300.641 51.205, 298.923 52.923 M 115.184 62.795 C 108.166 79.107, 108.164 97.888, 115.178 114.193 L 117.335 119.207 118.838 116.354 C 122.787 108.856, 124.173 103.178, 124.717 92.265 C 125.335 79.872, 123.700 70.329, 119.555 62.134 L 117.346 57.768 115.184 62.795 M 139.184 62.795 C 132.164 79.113, 132.164 97.887, 139.184 114.205 L 141.346 119.232 143.679 114.642 C 147.389 107.343, 149 99.426, 149 88.500 C 149 77.574, 147.389 69.657, 143.679 62.358 L 141.346 57.768 139.184 62.795 M 352.571 91.571 C 348.959 95.184, 351.580 102, 356.582 102 C 359.585 102, 363.236 97.365, 362.417 94.593 C 361.115 90.189, 355.635 88.508, 352.571 91.571 M 311 109.343 C 311 126.610, 311.136 127.944, 313.325 132.093 C 316.389 137.901, 321.716 140.962, 328.800 140.984 C 335.043 141.003, 338.572 139.390, 342.784 134.593 C 346.158 130.750, 347.672 124.395, 346.588 118.618 C 344.582 107.926, 331.672 100.792, 322.750 105.447 L 320 106.881 320 98.941 L 320 91 315.500 91 L 311 91 311 109.343 M 229 117 L 229 141 234 141 L 239 141 239 136 L 239 131 244.086 131 L 249.172 131 251.284 136 L 253.397 141 258.198 141 C 260.839 141, 263 140.671, 263 140.269 C 263 139.867, 262.017 137.166, 260.815 134.267 L 258.630 128.996 261.201 126.248 C 266.671 120.401, 268.529 112.193, 265.940 105.315 C 264.358 101.110, 258.046 95.107, 254.035 93.993 C 252.091 93.453, 245.662 93.009, 239.750 93.006 L 229 93 229 117 M 239 112.500 L 239 122 244.453 122 C 251.460 122, 254.508 120.557, 256.539 116.277 C 258.492 112.161, 257.856 108.765, 254.505 105.414 C 252.445 103.354, 251.132 103, 245.545 103 L 239 103 239 112.500 M 280.500 105.665 C 275.867 108.113, 273.877 110.153, 271.881 114.500 C 267.670 123.670, 271.438 135.036, 280.200 139.595 C 284.603 141.886, 292.670 141.383, 297.566 138.514 C 307.154 132.895, 309.020 118.006, 301.186 109.627 C 296.031 104.113, 286.788 102.343, 280.500 105.665 M 352 123 L 352 141 356.500 141 L 361 141 361 123 L 361 105 356.500 105 L 352 105 352 123 M 368 123 L 368 141 372.500 141 L 377 141 377 129.674 C 377 119.129, 377.159 118.199, 379.314 116.174 C 382.347 113.326, 385.513 113.422, 388.545 116.455 C 390.855 118.764, 391 119.561, 391 129.955 L 391 141 395.500 141 L 400 141 400 129.712 C 400 119.977, 399.690 117.818, 397.750 114.020 C 394.813 108.273, 391.301 105.831, 385.116 105.237 C 381.228 104.864, 379.296 105.218, 376.623 106.795 C 373.214 108.806, 373.136 108.808, 371.426 106.918 C 370.471 105.863, 369.310 105, 368.845 105 C 368.380 105, 368 113.100, 368 123 M 282.306 115.413 C 278.497 118.690, 278.310 125.572, 281.924 129.419 C 285.916 133.668, 292.968 132.896, 295.537 127.928 C 297.892 123.374, 297.389 119.235, 294.077 115.923 C 290.413 112.259, 286.186 112.076, 282.306 115.413 M 322.923 115.923 C 316.816 122.030, 320.598 131.893, 329.076 131.968 C 334.240 132.014, 337.500 128.285, 337.500 122.333 C 337.500 118.636, 336.996 117.394, 334.694 115.413 C 330.814 112.076, 326.587 112.259, 322.923 115.923 M 112.794 130.460 L 108.088 135.699 112.940 137.972 L 117.792 140.244 122.371 137.957 L 126.951 135.670 122.821 131.085 C 120.550 128.563, 118.423 126.212, 118.096 125.861 C 117.768 125.509, 115.382 127.579, 112.794 130.460 M 136.794 130.460 L 132.088 135.699 136.958 137.980 L 141.828 140.261 146.445 138.026 L 151.062 135.791 146.877 131.146 C 144.575 128.591, 142.423 126.212, 142.096 125.861 C 141.768 125.509, 139.382 127.579, 136.794 130.460 M 102 139.438 L 98.500 141.500 101.728 141.812 C 103.503 141.983, 106.653 141.983, 108.728 141.812 L 112.500 141.500 109 139.438 L 105.500 137.375 102 139.438 M 126 139.438 L 122.500 141.500 125.728 141.812 C 127.503 141.983, 130.653 141.983, 132.728 141.812 L 136.500 141.500 133 139.438 L 129.500 137.375 126 139.438 M 150 139.438 L 146.500 141.500 149.728 141.812 C 151.503 141.983, 154.653 141.983, 156.728 141.812 L 160.500 141.500 157 139.438 L 153.500 137.375 150 139.438" stroke="none" fill="#2bb624" fill-rule="evenodd"/></svg>