<svg xmlns="http://www.w3.org/2000/svg" xmlns:xlink="http://www.w3.org/1999/xlink" contentStyleType="text/css" data-diagram-type="CLASS" height="860px" preserveAspectRatio="none" style="width:277px;height:860px;background:#FFFFFF;" version="1.1" viewBox="0 0 277 860" width="277px" zoomAndPan="magnify"><defs/><g><!--class User--><g id="elem_User"><rect codeLine="2" fill="#FFFFFF" height="125.4844" id="User" rx="2.5" ry="2.5" style="stroke:#000000;stroke-width:1;" width="136.5742" x="49.38" y="12"/><ellipse cx="97.962" cy="26" fill="#FFFFFF" rx="9" ry="9" style="stroke:#000000;stroke-width:1;"/><path d="M100.9308,31.6406 Q100.3527,31.9375 99.712,32.0781 Q99.0714,32.2344 98.3683,32.2344 Q95.8683,32.2344 94.5402,30.5938 Q93.2277,28.9375 93.2277,25.8125 Q93.2277,22.6875 94.5402,21.0313 Q95.8683,19.375 98.3683,19.375 Q99.0714,19.375 99.712,19.5313 Q100.3683,19.6875 100.9308,19.9844 L100.9308,22.7031 Q100.3058,22.125 99.712,21.8594 Q99.1183,21.5781 98.4933,21.5781 Q97.1495,21.5781 96.462,22.6563 Q95.7745,23.7188 95.7745,25.8125 Q95.7745,27.9063 96.462,28.9844 Q97.1495,30.0469 98.4933,30.0469 Q99.1183,30.0469 99.712,29.7813 Q100.3058,29.5 100.9308,28.9219 L100.9308,31.6406 Z " fill="#000000"/><text fill="#000000" font-family="Verdana" font-size="14" lengthAdjust="spacing" textLength="31.9102" x="115.462" y="30.8467">User</text><line style="stroke:#000000;stroke-width:1;" x1="50.38" x2="184.9542" y1="40" y2="40"/><rect fill="none" height="6" style="stroke:#000000;stroke-width:1;" width="6" x="57.38" y="50.6484"/><text fill="#000000" font-family="Verdana" font-size="14" lengthAdjust="spacing" textLength="90.6514" x="67.38" y="56.9951">name: String</text><rect fill="none" height="6" style="stroke:#000000;stroke-width:1;" width="6" x="57.38" y="66.9453"/><text fill="#000000" font-family="Verdana" font-size="14" lengthAdjust="spacing" textLength="112.5742" x="67.38" y="73.292">surname: String</text><rect fill="none" height="6" style="stroke:#000000;stroke-width:1;" width="6" x="57.38" y="83.2422"/><text fill="#000000" font-family="Verdana" font-size="14" lengthAdjust="spacing" textLength="91.4854" x="67.38" y="89.5889">age: Number</text><rect fill="none" height="6" style="stroke:#000000;stroke-width:1;" width="6" x="57.38" y="99.5391"/><text fill="#000000" font-family="Verdana" font-size="14" lengthAdjust="spacing" textLength="80.9443" x="67.38" y="105.8857">mail: String</text><rect fill="none" height="6" style="stroke:#000000;stroke-width:1;" width="6" x="57.38" y="115.8359"/><text fill="#000000" font-family="Verdana" font-size="14" lengthAdjust="spacing" textLength="105.5879" x="67.38" y="122.1826">number: String</text><line style="stroke:#000000;stroke-width:1;" x1="50.38" x2="184.9542" y1="129.4844" y2="129.4844"/></g><!--class Client--><g id="elem_Client"><rect codeLine="10" fill="#FFFFFF" height="60.2969" id="Client" rx="2.5" ry="2.5" style="stroke:#000000;stroke-width:1;" width="88.8184" x="73.26" y="317.78"/><ellipse cx="95.3896" cy="331.78" fill="#FFFFFF" rx="9" ry="9" style="stroke:#000000;stroke-width:1;"/><path d="M98.3584,337.4206 Q97.7803,337.7175 97.1396,337.8581 Q96.499,338.0144 95.7959,338.0144 Q93.2959,338.0144 91.9678,336.3738 Q90.6553,334.7175 90.6553,331.5925 Q90.6553,328.4675 91.9678,326.8113 Q93.2959,325.155 95.7959,325.155 Q96.499,325.155 97.1396,325.3113 Q97.7959,325.4675 98.3584,325.7644 L98.3584,328.4831 Q97.7334,327.905 97.1396,327.6394 Q96.5459,327.3581 95.9209,327.3581 Q94.5771,327.3581 93.8896,328.4363 Q93.2021,329.4988 93.2021,331.5925 Q93.2021,333.6863 93.8896,334.7644 Q94.5771,335.8269 95.9209,335.8269 Q96.5459,335.8269 97.1396,335.5613 Q97.7334,335.28 98.3584,334.7019 L98.3584,337.4206 Z " fill="#000000"/><text fill="#000000" font-family="Verdana" font-size="14" lengthAdjust="spacing" textLength="40.5303" x="109.4184" y="336.6267">Client</text><line style="stroke:#000000;stroke-width:1;" x1="74.26" x2="161.0784" y1="345.78" y2="345.78"/><rect fill="none" height="6" style="stroke:#000000;stroke-width:1;" width="6" x="81.26" y="356.4284"/><text fill="#000000" font-family="Verdana" font-size="14" lengthAdjust="spacing" textLength="64.8184" x="91.26" y="362.7751">diet: Diet</text><line style="stroke:#000000;stroke-width:1;" x1="74.26" x2="161.0784" y1="370.0769" y2="370.0769"/></g><!--class Nutritionist--><g id="elem_Nutritionist"><rect codeLine="14" fill="#FFFFFF" height="60.2969" id="Nutritionist" rx="2.5" ry="2.5" style="stroke:#000000;stroke-width:1;" width="167.377" x="102.98" y="197.49"/><ellipse cx="143.9331" cy="211.49" fill="#FFFFFF" rx="9" ry="9" style="stroke:#000000;stroke-width:1;"/><path d="M146.9019,217.1306 Q146.3238,217.4275 145.6831,217.5681 Q145.0425,217.7244 144.3394,217.7244 Q141.8394,217.7244 140.5113,216.0838 Q139.1988,214.4275 139.1988,211.3025 Q139.1988,208.1775 140.5113,206.5213 Q141.8394,204.865 144.3394,204.865 Q145.0425,204.865 145.6831,205.0213 Q146.3394,205.1775 146.9019,205.4744 L146.9019,208.1931 Q146.2769,207.615 145.6831,207.3494 Q145.0894,207.0681 144.4644,207.0681 Q143.1206,207.0681 142.4331,208.1463 Q141.7456,209.2088 141.7456,211.3025 Q141.7456,213.3963 142.4331,214.4744 Q143.1206,215.5369 144.4644,215.5369 Q145.0894,215.5369 145.6831,215.2713 Q146.2769,214.99 146.9019,214.4119 L146.9019,217.1306 Z " fill="#000000"/><text fill="#000000" font-family="Verdana" font-size="14" lengthAdjust="spacing" textLength="77.9707" x="161.4331" y="216.3367">Nutritionist</text><line style="stroke:#000000;stroke-width:1;" x1="103.98" x2="269.357" y1="225.49" y2="225.49"/><rect fill="none" height="6" style="stroke:#000000;stroke-width:1;" width="6" x="110.98" y="236.1384"/><text fill="#000000" font-family="Verdana" font-size="14" lengthAdjust="spacing" textLength="143.377" x="120.98" y="242.4851">clients: List&lt;Client&gt;</text><line style="stroke:#000000;stroke-width:1;" x1="103.98" x2="269.357" y1="249.7869" y2="249.7869"/></g><!--class Diet--><g id="elem_Diet"><rect codeLine="18" fill="#FFFFFF" height="141.7813" id="Diet" rx="2.5" ry="2.5" style="stroke:#000000;stroke-width:1;" width="157.4922" x="38.92" y="438.08"/><ellipse cx="99.5299" cy="452.08" fill="#FFFFFF" rx="9" ry="9" style="stroke:#000000;stroke-width:1;"/><path d="M102.4986,457.7206 Q101.9205,458.0175 101.2799,458.1581 Q100.6392,458.3144 99.9361,458.3144 Q97.4361,458.3144 96.108,456.6737 Q94.7955,455.0175 94.7955,451.8925 Q94.7955,448.7675 96.108,447.1112 Q97.4361,445.455 99.9361,445.455 Q100.6392,445.455 101.2799,445.6112 Q101.9361,445.7675 102.4986,446.0644 L102.4986,448.7831 Q101.8736,448.205 101.2799,447.9394 Q100.6861,447.6581 100.0611,447.6581 Q98.7174,447.6581 98.0299,448.7362 Q97.3424,449.7987 97.3424,451.8925 Q97.3424,453.9862 98.0299,455.0644 Q98.7174,456.1269 100.0611,456.1269 Q100.6861,456.1269 101.2799,455.8612 Q101.8736,455.58 102.4986,455.0019 L102.4986,457.7206 Z " fill="#000000"/><text fill="#000000" font-family="Verdana" font-size="14" lengthAdjust="spacing" textLength="28.7725" x="117.0299" y="456.9267">Diet</text><line style="stroke:#000000;stroke-width:1;" x1="39.92" x2="195.4122" y1="466.08" y2="466.08"/><rect fill="none" height="6" style="stroke:#000000;stroke-width:1;" width="6" x="46.92" y="476.7284"/><text fill="#000000" font-family="Verdana" font-size="14" lengthAdjust="spacing" textLength="118.7676" x="56.92" y="483.0751">clientID: Number</text><rect fill="none" height="6" style="stroke:#000000;stroke-width:1;" width="6" x="46.92" y="493.0253"/><text fill="#000000" font-family="Verdana" font-size="14" lengthAdjust="spacing" textLength="90.6514" x="56.92" y="499.372">name: String</text><rect fill="none" height="6" style="stroke:#000000;stroke-width:1;" width="6" x="46.92" y="509.3222"/><text fill="#000000" font-family="Verdana" font-size="14" lengthAdjust="spacing" textLength="133.4922" x="56.92" y="515.6689">dietType: DietType</text><rect fill="none" height="6" style="stroke:#000000;stroke-width:1;" width="6" x="46.92" y="525.6191"/><text fill="#000000" font-family="Verdana" font-size="14" lengthAdjust="spacing" textLength="75.2363" x="56.92" y="531.9657">start: Date</text><rect fill="none" height="6" style="stroke:#000000;stroke-width:1;" width="6" x="46.92" y="541.9159"/><text fill="#000000" font-family="Verdana" font-size="14" lengthAdjust="spacing" textLength="69.002" x="56.92" y="548.2626">end: Date</text><rect fill="none" height="6" style="stroke:#000000;stroke-width:1;" width="6" x="46.92" y="558.2128"/><text fill="#000000" font-family="Verdana" font-size="14" lengthAdjust="spacing" textLength="132.2754" x="56.92" y="564.5595">meals: List&lt;Meal&gt;</text><line style="stroke:#000000;stroke-width:1;" x1="39.92" x2="195.4122" y1="571.8612" y2="571.8612"/></g><!--class Meal--><g id="elem_Meal"><rect codeLine="27" fill="#FFFFFF" height="60.2969" id="Meal" rx="2.5" ry="2.5" style="stroke:#000000;stroke-width:1;" width="153.4111" x="40.96" y="639.86"/><ellipse cx="97.335" cy="653.86" fill="#FFFFFF" rx="9" ry="9" style="stroke:#000000;stroke-width:1;"/><path d="M100.3038,659.5006 Q99.7256,659.7975 99.085,659.9381 Q98.4444,660.0944 97.7413,660.0944 Q95.2413,660.0944 93.9131,658.4537 Q92.6006,656.7975 92.6006,653.6725 Q92.6006,650.5475 93.9131,648.8912 Q95.2413,647.235 97.7413,647.235 Q98.4444,647.235 99.085,647.3912 Q99.7413,647.5475 100.3038,647.8444 L100.3038,650.5631 Q99.6788,649.985 99.085,649.7194 Q98.4913,649.4381 97.8663,649.4381 Q96.5225,649.4381 95.835,650.5162 Q95.1475,651.5787 95.1475,653.6725 Q95.1475,655.7662 95.835,656.8444 Q96.5225,657.9069 97.8663,657.9069 Q98.4913,657.9069 99.085,657.6412 Q99.6788,657.36 100.3038,656.7819 L100.3038,659.5006 Z " fill="#000000"/><text fill="#000000" font-family="Verdana" font-size="14" lengthAdjust="spacing" textLength="33.1611" x="114.835" y="658.7067">Meal</text><line style="stroke:#000000;stroke-width:1;" x1="41.96" x2="193.3711" y1="667.86" y2="667.86"/><rect fill="none" height="6" style="stroke:#000000;stroke-width:1;" width="6" x="48.96" y="678.5084"/><text fill="#000000" font-family="Verdana" font-size="14" lengthAdjust="spacing" textLength="129.4111" x="58.96" y="684.8551">foods: List&lt;Food&gt;</text><line style="stroke:#000000;stroke-width:1;" x1="41.96" x2="193.3711" y1="692.1569" y2="692.1569"/></g><!--class Food--><g id="elem_Food"><rect codeLine="31" fill="#FFFFFF" height="92.8906" id="Food" rx="2.5" ry="2.5" style="stroke:#000000;stroke-width:1;" width="211.3389" x="12" y="760.16"/><ellipse cx="96.8843" cy="774.16" fill="#FFFFFF" rx="9" ry="9" style="stroke:#000000;stroke-width:1;"/><path d="M99.853,779.8006 Q99.2749,780.0975 98.6343,780.2381 Q97.9937,780.3944 97.2905,780.3944 Q94.7905,780.3944 93.4624,778.7538 Q92.1499,777.0975 92.1499,773.9725 Q92.1499,770.8475 93.4624,769.1913 Q94.7905,767.535 97.2905,767.535 Q97.9937,767.535 98.6343,767.6913 Q99.2905,767.8475 99.853,768.1444 L99.853,770.8631 Q99.228,770.285 98.6343,770.0194 Q98.0405,769.7381 97.4155,769.7381 Q96.0718,769.7381 95.3843,770.8163 Q94.6968,771.8788 94.6968,773.9725 Q94.6968,776.0663 95.3843,777.1444 Q96.0718,778.2069 97.4155,778.2069 Q98.0405,778.2069 98.6343,777.9413 Q99.228,777.66 99.853,777.0819 L99.853,779.8006 Z " fill="#000000"/><text fill="#000000" font-family="Verdana" font-size="14" lengthAdjust="spacing" textLength="34.0703" x="114.3843" y="779.0067">Food</text><line style="stroke:#000000;stroke-width:1;" x1="13" x2="222.3389" y1="788.16" y2="788.16"/><rect fill="none" height="6" style="stroke:#000000;stroke-width:1;" width="6" x="20" y="798.8084"/><text fill="#000000" font-family="Verdana" font-size="14" lengthAdjust="spacing" textLength="90.6514" x="30" y="805.1551">name: String</text><rect fill="none" height="6" style="stroke:#000000;stroke-width:1;" width="6" x="20" y="815.1053"/><text fill="#000000" font-family="Verdana" font-size="14" lengthAdjust="spacing" textLength="123.7715" x="30" y="821.452">quantity: Number</text><rect fill="none" height="6" style="stroke:#000000;stroke-width:1;" width="6" x="20" y="831.4022"/><text fill="#000000" font-family="Verdana" font-size="14" lengthAdjust="spacing" textLength="187.3389" x="30" y="837.7489">measureUnit: MeasureUnit</text><line style="stroke:#000000;stroke-width:1;" x1="13" x2="222.3389" y1="845.0506" y2="845.0506"/></g><!--reverse link User to Client--><g id="link_User_Client"><path codeLine="37" d="M91.3118,155.0252 C81.7018,190.2452 78.71,217.79 85.67,257.78 C89.25,278.36 97.15,300.46 104.21,317.51 " fill="none" id="User-backto-Client" style="stroke:#000000;stroke-width:1;"/><polygon fill="none" points="96.05,137.66,85.5234,153.4458,97.1002,156.6046,96.05,137.66" style="stroke:#000000;stroke-width:1;"/></g><!--reverse link User to Nutritionist--><g id="link_User_Nutritionist"><path codeLine="38" d="M153.4178,153.9187 C162.8778,174.5987 165.49,180.31 173.26,197.32 " fill="none" id="User-backto-Nutritionist" style="stroke:#000000;stroke-width:1;"/><polygon fill="none" points="145.93,137.55,147.9616,156.4146,158.874,151.4227,145.93,137.55" style="stroke:#000000;stroke-width:1;"/></g><!--link Client to Diet--><g id="link_Client_Diet"><path codeLine="39" d="M117.67,378.47 C117.67,395.18 117.67,410.84 117.67,431.65 " fill="none" id="Client-to-Diet" style="stroke:#000000;stroke-width:1;"/><polygon fill="#000000" points="117.67,437.65,121.67,428.65,117.67,432.65,113.67,428.65,117.67,437.65" style="stroke:#000000;stroke-width:1;"/></g><!--link Nutritionist to Client--><g id="link_Nutritionist_Client"><path codeLine="40" d="M169.44,258.18 C158.9,276.25 148.483,294.0972 137.943,312.1672 " fill="none" id="Nutritionist-to-Client" style="stroke:#000000;stroke-width:1;"/><polygon fill="#000000" points="134.92,317.35,142.9098,311.5912,137.4392,313.031,135.9994,307.5605,134.92,317.35" style="stroke:#000000;stroke-width:1;"/></g><!--link Diet to Meal--><g id="link_Diet_Meal"><path codeLine="41" d="M117.67,580.19 C117.67,600.99 117.67,616.66 117.67,633.38 " fill="none" id="Diet-to-Meal" style="stroke:#000000;stroke-width:1;"/><polygon fill="#000000" points="117.67,639.38,121.67,630.38,117.67,634.38,113.67,630.38,117.67,639.38" style="stroke:#000000;stroke-width:1;"/></g><!--link Meal to Food--><g id="link_Meal_Food"><path codeLine="42" d="M117.67,700.55 C117.67,717.88 117.67,734.16 117.67,753.73 " fill="none" id="Meal-to-Food" style="stroke:#000000;stroke-width:1;"/><polygon fill="#000000" points="117.67,759.73,121.67,750.73,117.67,754.73,113.67,750.73,117.67,759.73" style="stroke:#000000;stroke-width:1;"/></g><!--SRC=[RL51JWCn3Bpd5U41-S2gweKA2Ods0ds0wPfYAV6sYVTG0NydJb8shRYiF6DFnfvza4yCQ4yUYCt1Gqfsdp3QBsEjOmWus5U9n4V5QOxt51mptCtX7QF20EJxDfVE7_DZciUZ9sIfBYEX37QJlqj_DsU1qCIKsjIXAD9WNpArglhr8b1vF_YywTUwtrejtoudhBPQbVC4ecu2KY3ok820uA_csrntrWghzSSqZTUXfrntGmh_3_Ky0ml9vIP6X9mrxfdoFji5w7lbzwo-dMiXTaIVccaHExUksTv4gcoJb-GKwnsc7AD85_u5]--></g></svg>